# Blender v2.93.5 OBJ File: 'asm.blend'
# www.blender.org
mtllib asm_A.mtl
o Plane.002
v 0.003056 0.043846 0.087978
v 0.087847 0.043846 0.087978
v 0.012914 0.043846 0.034634
v 0.104560 0.043846 -0.015559
v 0.109043 0.043846 -0.039863
v 0.124770 0.043846 -0.133863
v -0.029518 0.043846 -0.133863
v -0.183312 0.043846 0.087978
v -0.090149 0.043846 0.087978
v -0.062051 0.043846 0.045092
v -0.106908 0.043846 0.012559
v -0.026560 0.043846 -0.005187
v 0.035056 0.043846 -0.096872
v 0.021254 0.043846 -0.018989
v 0.003056 -0.043846 0.087978
v 0.087847 -0.043846 0.087978
v 0.012914 -0.043846 0.034634
v 0.104560 -0.043846 -0.015559
v 0.109043 -0.043846 -0.039863
v 0.124770 -0.043846 -0.133863
v -0.029518 -0.043846 -0.133863
v -0.183312 -0.043846 0.087978
v -0.090149 -0.043846 0.087978
v -0.062051 -0.043846 0.045092
v -0.106908 -0.043846 0.012559
v -0.026560 -0.043846 -0.005187
v 0.035056 -0.043846 -0.096872
v 0.021254 -0.043846 -0.018989
vt 0.656250 0.777344
vt 0.656250 0.777344
vt 0.656250 0.777344
vt 0.656250 0.777344
vt 0.656250 0.777344
vt 0.656250 0.777344
vt 0.324219 0.347656
vt 0.324219 0.347656
vt 0.324219 0.347656
vt 0.324219 0.347656
vt 0.324219 0.347656
vt 0.324219 0.347656
vt 0.656250 0.777344
vt 0.656250 0.777344
vt 0.656250 0.777344
vt 0.656250 0.777344
vt 0.656250 0.777344
vt 0.656250 0.777344
vt 0.656250 0.777344
vt 0.656250 0.777344
vt 0.656250 0.777344
vt 0.656250 0.777344
vt 0.656250 0.777344
vt 0.656250 0.777344
vt 0.656250 0.777344
vt 0.656250 0.777344
vt 0.656250 0.777344
vt 0.656250 0.777344
vt 0.656250 0.777344
vt 0.656250 0.777344
vt 0.656250 0.777344
vt 0.656250 0.777344
vt 0.656250 0.777344
vt 0.656250 0.777344
vt 0.324219 0.347656
vt 0.324219 0.347656
vt 0.324219 0.347656
vt 0.324219 0.347656
vt 0.324219 0.347656
vt 0.324219 0.347656
vt 0.324219 0.347656
vt 0.324219 0.347656
vn 0.0000 1.0000 0.0000
vn 0.0000 -1.0000 0.0000
vn -0.4804 0.0000 -0.8771
vn 0.0000 0.0000 1.0000
vn 0.9872 0.0000 0.1594
vn -0.9833 0.0000 -0.1817
vn 0.9863 0.0000 0.1650
vn 0.0000 0.0000 -1.0000
vn -0.8218 0.0000 -0.5697
vn 0.8365 0.0000 0.5480
vn 0.5871 0.0000 -0.8095
vn 0.2157 0.0000 0.9765
vn 0.8300 0.0000 0.5578
vn -0.9847 0.0000 -0.1745
vn 0.2313 0.0000 0.9729
usemtl Material.002
s off
f 13/1/1 6/2/1 7/3/1
f 3/4/1 2/5/1 4/6/1
f 25/7/2 22/8/2 21/9/2
f 16/10/2 17/11/2 18/12/2
f 4/6/3 17/13/3 3/4/3
f 1/14/4 16/15/4 2/5/4
f 2/5/5 18/16/5 4/6/5
f 3/4/6 15/17/6 1/14/6
f 19/18/7 6/2/7 5/19/7
f 20/20/8 7/3/8 6/2/8
f 21/21/9 8/22/9 7/3/9
f 22/23/4 9/24/4 8/22/4
f 23/25/10 10/26/10 9/24/10
f 24/27/11 11/28/11 10/26/11
f 25/29/12 12/30/12 11/28/12
f 26/31/13 13/1/13 12/30/13
f 27/32/14 14/33/14 13/1/14
f 28/34/15 5/19/15 14/33/15
f 8/22/1 9/24/1 11/28/1
f 9/24/1 10/26/1 11/28/1
f 11/28/1 12/30/1 7/3/1
f 12/30/1 13/1/1 7/3/1
f 14/33/1 5/19/1 13/1/1
f 5/19/1 6/2/1 13/1/1
f 7/3/1 8/22/1 11/28/1
f 3/4/1 1/14/1 2/5/1
f 20/35/2 19/36/2 27/37/2
f 19/36/2 28/38/2 27/37/2
f 27/37/2 26/39/2 21/9/2
f 26/39/2 25/7/2 21/9/2
f 24/40/2 23/41/2 25/7/2
f 23/41/2 22/8/2 25/7/2
f 21/9/2 20/35/2 27/37/2
f 16/10/2 15/42/2 17/11/2
f 4/6/3 18/16/3 17/13/3
f 1/14/4 15/17/4 16/15/4
f 2/5/5 16/15/5 18/16/5
f 3/4/6 17/13/6 15/17/6
f 19/18/7 20/20/7 6/2/7
f 20/20/8 21/21/8 7/3/8
f 21/21/9 22/23/9 8/22/9
f 22/23/4 23/25/4 9/24/4
f 23/25/10 24/27/10 10/26/10
f 24/27/11 25/29/11 11/28/11
f 25/29/12 26/31/12 12/30/12
f 26/31/13 27/32/13 13/1/13
f 27/32/14 28/34/14 14/33/14
f 28/34/15 19/18/15 5/19/15
