# Blender 4.1.1
# www.blender.org
mtllib farjanNotes.mtl
o Plane
v 0.596787 0.000000 1.083693
v -0.603213 0.000000 -0.259388
v -0.494122 0.000000 0.718453
v -0.385031 0.000000 0.738838
v -0.275940 0.000000 0.784782
v -0.166849 0.000000 0.837867
v -0.057758 0.000000 0.890685
v 0.051333 0.000000 0.941113
v 0.160424 0.000000 0.987043
v 0.269515 0.000000 1.026363
v 0.378605 0.000000 1.056966
v 0.487696 0.000000 1.076742
v 0.487696 0.000000 0.112660
v 0.378605 0.000000 0.092815
v 0.269515 0.000000 0.062143
v 0.160424 0.000000 0.022753
v 0.051333 0.000000 -0.023246
v -0.057758 0.000000 -0.073743
v -0.166849 0.000000 -0.126630
v -0.275940 0.000000 -0.179797
v -0.385031 0.000000 -0.226882
v -0.494122 0.000000 -0.245916
v 0.596787 0.000000 0.119656
v 1.687633 0.000000 0.691903
v 1.578606 0.000000 0.735119
v 1.469515 0.000000 0.784773
v 1.360424 0.000000 0.837867
v 1.251333 0.000000 0.890685
v 1.142242 0.000000 0.941113
v 1.033151 0.000000 0.987043
v 0.924060 0.000000 1.026363
v 0.814969 0.000000 1.056966
v 0.705878 0.000000 1.076742
v 0.705878 0.000000 0.112660
v 0.814969 0.000000 0.092815
v 0.924060 0.000000 0.062143
v 1.033151 0.000000 0.022753
v 1.142242 0.000000 -0.023246
v 1.251333 0.000000 -0.073743
v 1.360424 0.000000 -0.126630
v 1.469515 0.000000 -0.179797
v 1.578606 0.000000 -0.229836
v 1.687696 0.000000 -0.272496
v -0.603213 0.000000 0.706320
v -0.712304 0.000000 0.718453
v -0.821395 0.000000 0.738838
v -0.930485 0.000000 0.784782
v -1.039576 0.000000 0.837867
v -1.148667 0.000000 0.890685
v -1.257758 0.000000 0.941113
v -1.366849 0.000000 0.987043
v -1.475940 0.000000 1.026363
v -1.584968 0.000000 1.057731
v -1.585031 0.000000 0.092815
v -1.475940 0.000000 0.062143
v -1.366849 0.000000 0.022753
v -1.257758 0.000000 -0.023246
v -1.148667 0.000000 -0.073743
v -1.039576 0.000000 -0.126630
v -0.930485 0.000000 -0.179797
v -0.821395 0.000000 -0.226882
v -0.712304 0.000000 -0.245916
v 0.542242 0.000000 1.081801
v -0.548667 0.000000 -0.254230
v -0.439576 0.000000 0.726741
v -0.330485 0.000000 0.759508
v -0.221394 0.000000 0.811228
v -0.112304 0.000000 0.864431
v -0.003213 0.000000 0.916299
v 0.105878 0.000000 0.964723
v 0.214969 0.000000 1.007593
v 0.324060 0.000000 1.042800
v 0.433151 0.000000 1.068234
v 0.433151 0.000000 0.103893
v 0.324060 0.000000 0.078429
v 0.214969 0.000000 0.043193
v 0.105878 0.000000 0.000294
v -0.003213 0.000000 -0.048159
v -0.112304 0.000000 -0.100057
v -0.221394 0.000000 -0.153289
v -0.330485 0.000000 -0.205274
v -0.439576 0.000000 -0.237993
v 1.739969 0.000000 -0.296991
v 1.738549 0.000000 0.661122
v 1.633151 0.000000 0.713943
v 1.524060 0.000000 0.759016
v 1.414969 0.000000 0.811228
v 1.305878 0.000000 0.864431
v 1.196787 0.000000 0.916299
v 1.087697 0.000000 0.964723
v 0.978606 0.000000 1.007593
v 0.869515 0.000000 1.042800
v 0.760424 0.000000 1.068234
v 0.651333 0.000000 0.117484
v 0.760424 0.000000 0.103893
v 0.869515 0.000000 0.078429
v 0.978606 0.000000 0.043193
v 1.087697 0.000000 0.000294
v 1.196787 0.000000 -0.048159
v 1.305878 0.000000 -0.100057
v 1.414969 0.000000 -0.153289
v 1.524060 0.000000 -0.205602
v 1.633151 0.000000 -0.250462
v -0.657758 0.000000 0.710501
v -0.766849 0.000000 0.726741
v -0.875940 0.000000 0.759508
v -0.985031 0.000000 0.811228
v -1.094122 0.000000 0.864431
v -1.203213 0.000000 0.916299
v -1.312304 0.000000 0.964723
v -1.421394 0.000000 1.007593
v -1.530486 0.000000 1.042800
v -1.635883 0.000000 1.064736
v -1.637304 0.000000 0.115606
v -1.530486 0.000000 0.078429
v -1.421394 0.000000 0.043193
v -1.312304 0.000000 0.000294
v -1.203213 0.000000 -0.048159
v -1.094122 0.000000 -0.100057
v -0.985031 0.000000 -0.153289
v -0.875940 0.000000 -0.205274
v -0.766849 0.000000 -0.237993
v -0.548667 0.000000 0.710501
v 0.542242 0.000000 0.117484
v 0.651333 0.000000 1.081801
v -0.657758 0.000000 -0.254230
vn -0.0000 -1.0000 -0.0000
vt 0.229732 0.014802
vt 0.230764 0.985198
vt 0.233408 0.985198
vt 0.232376 0.014802
vt 0.176993 0.014802
vt 0.178025 0.985198
vt 0.180667 0.985198
vt 0.179635 0.014802
vt 0.182278 0.014802
vt 0.183310 0.985198
vt 0.185953 0.985198
vt 0.184921 0.014802
vt 0.187554 0.014802
vt 0.188586 0.985198
vt 0.191219 0.985198
vt 0.190187 0.014802
vt 0.192820 0.014802
vt 0.193852 0.985198
vt 0.196485 0.985198
vt 0.195453 0.014802
vt 0.198086 0.014802
vt 0.199118 0.985198
vt 0.201750 0.985198
vt 0.200719 0.014802
vt 0.203352 0.014802
vt 0.204384 0.985198
vt 0.207017 0.985198
vt 0.205985 0.014802
vt 0.208620 0.014802
vt 0.209652 0.985198
vt 0.212286 0.985198
vt 0.211255 0.014802
vt 0.213891 0.014802
vt 0.214923 0.985198
vt 0.217559 0.985198
vt 0.216527 0.014802
vt 0.219166 0.014802
vt 0.220198 0.985198
vt 0.222836 0.985198
vt 0.221804 0.014802
vt 0.224446 0.014802
vt 0.225477 0.985198
vt 0.228119 0.985198
vt 0.227087 0.014802
vt 0.235025 0.014802
vt 0.236057 0.985198
vt 0.288172 0.014802
vt 0.285509 0.014802
vt 0.286540 0.985198
vt 0.289204 0.985198
vt 0.282852 0.014802
vt 0.280196 0.014802
vt 0.281228 0.985198
vt 0.283884 0.985198
vt 0.277536 0.014802
vt 0.274877 0.014802
vt 0.275908 0.985198
vt 0.278568 0.985198
vt 0.272216 0.014802
vt 0.269556 0.014802
vt 0.270588 0.985198
vt 0.273248 0.985198
vt 0.266896 0.014802
vt 0.264235 0.014802
vt 0.265267 0.985198
vt 0.267927 0.985198
vt 0.261576 0.014802
vt 0.258916 0.014802
vt 0.259948 0.985198
vt 0.262608 0.985198
vt 0.256258 0.014802
vt 0.253599 0.014802
vt 0.254631 0.985198
vt 0.257289 0.985198
vt 0.250943 0.014802
vt 0.248286 0.014802
vt 0.249318 0.985198
vt 0.251974 0.985198
vt 0.245631 0.014802
vt 0.242977 0.014802
vt 0.244008 0.985198
vt 0.246663 0.985198
vt 0.240325 0.014802
vt 0.237673 0.014802
vt 0.238705 0.985198
vt 0.241357 0.985198
vt 0.171700 0.014802
vt 0.169049 0.014802
vt 0.170080 0.985198
vt 0.172732 0.985198
vt 0.166399 0.014802
vt 0.163749 0.014802
vt 0.164780 0.985198
vt 0.167430 0.985198
vt 0.161089 0.014802
vt 0.158429 0.014802
vt 0.159461 0.985198
vt 0.162121 0.985198
vt 0.155769 0.014802
vt 0.153108 0.014802
vt 0.154140 0.985198
vt 0.156800 0.985198
vt 0.150448 0.014802
vt 0.147788 0.014802
vt 0.148820 0.985198
vt 0.151480 0.985198
vt 0.145128 0.014802
vt 0.142469 0.014802
vt 0.143500 0.985198
vt 0.146160 0.985198
vt 0.139810 0.014802
vt 0.137152 0.014802
vt 0.138183 0.985198
vt 0.140842 0.985198
vt 0.134495 0.014802
vt 0.131838 0.014802
vt 0.132870 0.985198
vt 0.135527 0.985198
vt 0.129184 0.014802
vt 0.126529 0.014802
vt 0.127561 0.985198
vt 0.130215 0.985198
vt 0.123877 0.014802
vt 0.124909 0.985198
vt 0.174352 0.014802
vt 0.175383 0.985198
s 0
usemtl Material.001
f 63/1/1 124/2/1 23/3/1 1/4/1
f 123/5/1 64/6/1 22/7/1 3/8/1
f 65/9/1 82/10/1 21/11/1 4/12/1
f 66/13/1 81/14/1 20/15/1 5/16/1
f 67/17/1 80/18/1 19/19/1 6/20/1
f 68/21/1 79/22/1 18/23/1 7/24/1
f 69/25/1 78/26/1 17/27/1 8/28/1
f 70/29/1 77/30/1 16/31/1 9/32/1
f 71/33/1 76/34/1 15/35/1 10/36/1
f 72/37/1 75/38/1 14/39/1 11/40/1
f 73/41/1 74/42/1 13/43/1 12/44/1
f 125/45/1 1/4/1 23/3/1 94/46/1
f 84/47/1 24/48/1 43/49/1 83/50/1
f 85/51/1 25/52/1 42/53/1 103/54/1
f 86/55/1 26/56/1 41/57/1 102/58/1
f 87/59/1 27/60/1 40/61/1 101/62/1
f 88/63/1 28/64/1 39/65/1 100/66/1
f 89/67/1 29/68/1 38/69/1 99/70/1
f 90/71/1 30/72/1 37/73/1 98/74/1
f 91/75/1 31/76/1 36/77/1 97/78/1
f 92/79/1 32/80/1 35/81/1 96/82/1
f 93/83/1 33/84/1 34/85/1 95/86/1
f 104/87/1 45/88/1 62/89/1 126/90/1
f 105/91/1 46/92/1 61/93/1 122/94/1
f 106/95/1 47/96/1 60/97/1 121/98/1
f 107/99/1 48/100/1 59/101/1 120/102/1
f 108/103/1 49/104/1 58/105/1 119/106/1
f 109/107/1 50/108/1 57/109/1 118/110/1
f 110/111/1 51/112/1 56/113/1 117/114/1
f 111/115/1 52/116/1 55/117/1 116/118/1
f 112/119/1 53/120/1 54/121/1 115/122/1
f 53/120/1 113/123/1 114/124/1 54/121/1
f 52/116/1 112/119/1 115/122/1 55/117/1
f 51/112/1 111/115/1 116/118/1 56/113/1
f 50/108/1 110/111/1 117/114/1 57/109/1
f 49/104/1 109/107/1 118/110/1 58/105/1
f 48/100/1 108/103/1 119/106/1 59/101/1
f 47/96/1 107/99/1 120/102/1 60/97/1
f 46/92/1 106/95/1 121/98/1 61/93/1
f 45/88/1 105/91/1 122/94/1 62/89/1
f 44/125/1 104/87/1 126/90/1 2/126/1
f 32/80/1 93/83/1 95/86/1 35/81/1
f 31/76/1 92/79/1 96/82/1 36/77/1
f 30/72/1 91/75/1 97/78/1 37/73/1
f 29/68/1 90/71/1 98/74/1 38/69/1
f 28/64/1 89/67/1 99/70/1 39/65/1
f 27/60/1 88/63/1 100/66/1 40/61/1
f 26/56/1 87/59/1 101/62/1 41/57/1
f 25/52/1 86/55/1 102/58/1 42/53/1
f 24/48/1 85/51/1 103/54/1 43/49/1
f 33/84/1 125/45/1 94/46/1 34/85/1
f 11/40/1 14/39/1 74/42/1 73/41/1
f 10/36/1 15/35/1 75/38/1 72/37/1
f 9/32/1 16/31/1 76/34/1 71/33/1
f 8/28/1 17/27/1 77/30/1 70/29/1
f 7/24/1 18/23/1 78/26/1 69/25/1
f 6/20/1 19/19/1 79/22/1 68/21/1
f 5/16/1 20/15/1 80/18/1 67/17/1
f 4/12/1 21/11/1 81/14/1 66/13/1
f 3/8/1 22/7/1 82/10/1 65/9/1
f 44/125/1 2/126/1 64/6/1 123/5/1
f 12/44/1 13/43/1 124/2/1 63/1/1
