# Blender 4.3.0
# www.blender.org
mtllib pin1.mtl
o Circle_Circle.001
v 0.000000 0.581572 -0.120908
v -0.031293 0.581572 -0.116788
v -0.060454 0.581572 -0.104709
v -0.085495 0.581572 -0.085495
v -0.104709 0.581572 -0.060454
v -0.116788 0.581572 -0.031293
v -0.120908 0.581572 -0.000000
v -0.116788 0.581572 0.031293
v -0.104709 0.581572 0.060454
v -0.085495 0.581572 0.085495
v -0.060454 0.581572 0.104709
v -0.031293 0.581572 0.116788
v 0.000000 0.581572 0.120908
v 0.031293 0.581572 0.116788
v 0.060454 0.581572 0.104709
v 0.085495 0.581572 0.085495
v 0.104709 0.581572 0.060454
v 0.116788 0.581572 0.031293
v 0.120908 0.581572 -0.000000
v 0.116788 0.581572 -0.031293
v 0.104709 0.581572 -0.060454
v 0.085495 0.581572 -0.085495
v 0.060454 0.581572 -0.104709
v 0.031293 0.581572 -0.116788
v 0.000000 0.581572 -0.000000
v 0.000000 0.560296 -0.120908
v -0.031293 0.560296 -0.116788
v -0.060454 0.560296 -0.104709
v -0.085495 0.560296 -0.085495
v -0.104709 0.560296 -0.060454
v -0.116788 0.560296 -0.031293
v -0.120908 0.560296 -0.000000
v -0.116788 0.560296 0.031293
v -0.104709 0.560296 0.060454
v -0.085495 0.560296 0.085495
v -0.060454 0.560296 0.104709
v -0.031293 0.560296 0.116788
v 0.000000 0.560296 0.120908
v 0.031293 0.560296 0.116788
v 0.060454 0.560296 0.104709
v 0.085495 0.560296 0.085495
v 0.104709 0.560296 0.060454
v 0.116788 0.560296 0.031293
v 0.120908 0.560296 -0.000000
v 0.116788 0.560296 -0.031293
v 0.104709 0.560296 -0.060454
v 0.085495 0.560296 -0.085495
v 0.060454 0.560296 -0.104709
v 0.031293 0.560296 -0.116788
v 0.000000 0.535055 -0.062990
v -0.016303 0.535055 -0.060844
v -0.031495 0.535055 -0.054551
v -0.044541 0.535055 -0.044541
v -0.054551 0.535055 -0.031495
v -0.060844 0.535055 -0.016303
v -0.062990 0.535055 -0.000000
v -0.060844 0.535055 0.016303
v -0.054551 0.535055 0.031495
v -0.044541 0.535055 0.044541
v -0.031495 0.535055 0.054551
v -0.016303 0.535055 0.060844
v 0.000000 0.535055 0.062990
v 0.016303 0.535055 0.060844
v 0.031495 0.535055 0.054551
v 0.044541 0.535055 0.044541
v 0.054551 0.535055 0.031495
v 0.060844 0.535055 0.016303
v 0.062990 0.535055 -0.000000
v 0.060844 0.535055 -0.016303
v 0.054551 0.535055 -0.031495
v 0.044541 0.535055 -0.044541
v 0.031495 0.535055 -0.054551
v 0.016303 0.535055 -0.060844
v 0.000000 0.298369 -0.075376
v -0.019509 0.298369 -0.072807
v -0.037688 0.298369 -0.065277
v -0.053299 0.298369 -0.053299
v -0.065277 0.298369 -0.037688
v -0.072807 0.298369 -0.019509
v -0.075376 0.298369 -0.000000
v -0.072807 0.298369 0.019509
v -0.065277 0.298369 0.037688
v -0.053299 0.298369 0.053299
v -0.037688 0.298369 0.065277
v -0.019509 0.298369 0.072807
v 0.000000 0.298369 0.075376
v 0.019509 0.298369 0.072807
v 0.037688 0.298369 0.065277
v 0.053299 0.298369 0.053299
v 0.065277 0.298369 0.037688
v 0.072807 0.298369 0.019509
v 0.075376 0.298369 -0.000000
v 0.072807 0.298369 -0.019509
v 0.065277 0.298369 -0.037688
v 0.053299 0.298369 -0.053299
v 0.037688 0.298369 -0.065277
v 0.019509 0.298369 -0.072807
v 0.000000 0.278415 -0.126662
v -0.032783 0.278415 -0.122346
v -0.063331 0.278415 -0.109693
v -0.089564 0.278415 -0.089564
v -0.109693 0.278415 -0.063331
v -0.122346 0.278415 -0.032783
v -0.126662 0.278415 -0.000000
v -0.122346 0.278415 0.032783
v -0.109693 0.278415 0.063331
v -0.089564 0.278415 0.089564
v -0.063331 0.278415 0.109693
v -0.032783 0.278415 0.122346
v 0.000000 0.278415 0.126662
v 0.032783 0.278415 0.122346
v 0.063331 0.278415 0.109693
v 0.089564 0.278415 0.089564
v 0.109693 0.278415 0.063331
v 0.122346 0.278415 0.032783
v 0.126662 0.278415 -0.000000
v 0.122346 0.278415 -0.032783
v 0.109693 0.278415 -0.063331
v 0.089564 0.278415 -0.089564
v 0.063331 0.278415 -0.109693
v 0.032783 0.278415 -0.122346
v 0.000000 0.265953 -0.141809
v -0.036703 0.265953 -0.136977
v -0.070904 0.265953 -0.122810
v -0.100274 0.265953 -0.100274
v -0.122810 0.265953 -0.070904
v -0.136977 0.265953 -0.036703
v -0.141809 0.265953 -0.000000
v -0.136977 0.265953 0.036703
v -0.122810 0.265953 0.070904
v -0.100274 0.265953 0.100274
v -0.070904 0.265953 0.122810
v -0.036703 0.265953 0.136977
v 0.000000 0.265953 0.141809
v 0.036703 0.265953 0.136977
v 0.070904 0.265953 0.122810
v 0.100274 0.265953 0.100274
v 0.122810 0.265953 0.070904
v 0.136977 0.265953 0.036703
v 0.141809 0.265953 -0.000000
v 0.136977 0.265953 -0.036703
v 0.122810 0.265953 -0.070904
v 0.100274 0.265953 -0.100274
v 0.070904 0.265953 -0.122810
v 0.036703 0.265953 -0.136977
v 0.000000 0.245295 -0.143873
v -0.037237 0.245295 -0.138971
v -0.071937 0.245295 -0.124598
v -0.101734 0.245295 -0.101734
v -0.124598 0.245295 -0.071937
v -0.138971 0.245295 -0.037237
v -0.143873 0.245295 -0.000000
v -0.138971 0.245295 0.037237
v -0.124598 0.245295 0.071937
v -0.101734 0.245295 0.101734
v -0.071937 0.245295 0.124598
v -0.037237 0.245295 0.138971
v 0.000000 0.245295 0.143873
v 0.037237 0.245295 0.138971
v 0.071937 0.245295 0.124598
v 0.101734 0.245295 0.101734
v 0.124598 0.245295 0.071937
v 0.138971 0.245295 0.037237
v 0.143873 0.245295 -0.000000
v 0.138971 0.245295 -0.037237
v 0.124598 0.245295 -0.071937
v 0.101734 0.245295 -0.101734
v 0.071937 0.245295 -0.124598
v 0.037237 0.245295 -0.138971
v 0.003067 0.245295 -0.023299
v -0.021711 0.245295 0.008993
v 0.018644 0.245295 0.014306
v 0.000000 -0.148832 0.000000
v 0.000000 -0.148832 0.000000
v 0.000000 -0.148832 0.000000
v -0.031293 0.581572 -0.116788
v 0.000000 0.581572 -0.120908
v -0.060454 0.581572 -0.104709
v -0.085495 0.581572 -0.085495
v -0.104709 0.581572 -0.060454
v -0.116788 0.581572 -0.031293
v -0.120908 0.581572 -0.000000
v -0.116788 0.581572 0.031293
v -0.104709 0.581572 0.060454
v -0.085495 0.581572 0.085495
v -0.060454 0.581572 0.104709
v -0.031293 0.581572 0.116788
v 0.000000 0.581572 0.120908
v 0.031293 0.581572 0.116788
v 0.060454 0.581572 0.104709
v 0.085495 0.581572 0.085495
v 0.104709 0.581572 0.060454
v 0.116788 0.581572 0.031293
v 0.120908 0.581572 -0.000000
v 0.116788 0.581572 -0.031293
v 0.104709 0.581572 -0.060454
v 0.085495 0.581572 -0.085495
v 0.060454 0.581572 -0.104709
v 0.031293 0.581572 -0.116788
v -0.016303 0.535055 -0.060844
v 0.000000 0.535055 -0.062990
v -0.031495 0.535055 -0.054551
v -0.044541 0.535055 -0.044541
v -0.054551 0.535055 -0.031495
v -0.060844 0.535055 -0.016303
v -0.062990 0.535055 -0.000000
v -0.060844 0.535055 0.016303
v -0.054551 0.535055 0.031495
v -0.044541 0.535055 0.044541
v -0.031495 0.535055 0.054551
v -0.016303 0.535055 0.060844
v 0.000000 0.535055 0.062990
v 0.016303 0.535055 0.060844
v 0.031495 0.535055 0.054551
v 0.044541 0.535055 0.044541
v 0.054551 0.535055 0.031495
v 0.060844 0.535055 0.016303
v 0.062990 0.535055 -0.000000
v 0.060844 0.535055 -0.016303
v 0.054551 0.535055 -0.031495
v 0.044541 0.535055 -0.044541
v 0.031495 0.535055 -0.054551
v 0.016303 0.535055 -0.060844
v -0.037237 0.245295 -0.138971
v 0.000000 0.245295 -0.143873
v -0.071937 0.245295 -0.124598
v -0.101734 0.245295 -0.101734
v -0.124598 0.245295 -0.071937
v -0.138971 0.245295 -0.037237
v -0.143873 0.245295 -0.000000
v -0.138971 0.245295 0.037237
v -0.124598 0.245295 0.071937
v -0.101734 0.245295 0.101734
v -0.071937 0.245295 0.124598
v -0.037237 0.245295 0.138971
v 0.000000 0.245295 0.143873
v 0.037237 0.245295 0.138971
v 0.071937 0.245295 0.124598
v 0.101734 0.245295 0.101734
v 0.124598 0.245295 0.071937
v 0.138971 0.245295 0.037237
v 0.143873 0.245295 -0.000000
v 0.138971 0.245295 -0.037237
v 0.124598 0.245295 -0.071937
v 0.101734 0.245295 -0.101734
v 0.071937 0.245295 -0.124598
v 0.037237 0.245295 -0.138971
v 0.003067 0.245295 -0.023299
v 0.018644 0.245295 0.014306
v -0.021711 0.245295 0.008993
vn -0.0000 1.0000 -0.0000
vn 0.7071 -0.0000 -0.7071
vn 0.8660 -0.0000 -0.5000
vn 0.7355 -0.5280 -0.4246
vn 0.5000 -0.0000 0.8660
vn 0.2588 -0.0000 0.9659
vn 0.2198 -0.5280 0.8203
vn -0.9659 -0.0000 0.2588
vn -1.0000 -0.0000 -0.0000
vn -0.8492 -0.5280 -0.0000
vn 0.5000 -0.0000 -0.8660
vn 0.6005 -0.5280 -0.6005
vn 0.7071 -0.0000 0.7071
vn 0.4246 -0.5280 0.7355
vn -0.8660 -0.0000 0.5000
vn -0.8203 -0.5280 0.2198
vn 0.2588 -0.0000 -0.9659
vn 0.4246 -0.5280 -0.7355
vn -0.2588 -0.0000 -0.9659
vn -0.0000 -0.0000 -1.0000
vn -0.0000 -0.5280 -0.8492
vn 0.8660 -0.0000 0.5000
vn 0.6005 -0.5280 0.6005
vn -0.7071 -0.0000 0.7071
vn -0.7355 -0.5280 0.4246
vn 0.2198 -0.5280 -0.8203
vn -0.5000 -0.0000 -0.8660
vn -0.2198 -0.5280 -0.8203
vn 0.9659 -0.0000 0.2588
vn 0.7355 -0.5280 0.4246
vn -0.5000 -0.0000 0.8660
vn -0.6005 -0.5280 0.6005
vn -0.7071 -0.0000 -0.7071
vn -0.4246 -0.5280 -0.7355
vn 1.0000 -0.0000 -0.0000
vn 0.8203 -0.5280 0.2198
vn -0.2588 -0.0000 0.9659
vn -0.4246 -0.5280 0.7355
vn -0.8660 -0.0000 -0.5000
vn -0.6005 -0.5280 -0.6005
vn 0.9659 -0.0000 -0.2588
vn 0.8492 -0.5280 -0.0000
vn -0.0000 -0.0000 1.0000
vn -0.2198 -0.5280 0.8203
vn -0.9659 -0.0000 -0.2588
vn -0.7355 -0.5280 -0.4246
vn 0.8203 -0.5280 -0.2198
vn -0.0000 -0.5280 0.8492
vn -0.8203 -0.5280 -0.2198
vn -0.2825 -0.9167 0.2825
vn -0.1998 -0.9167 0.3460
vn -0.1998 -0.9167 -0.3460
vn 0.3859 -0.9167 0.1034
vn -0.2825 -0.9167 -0.2825
vn 0.3995 -0.9167 -0.0000
vn -0.1034 -0.9167 0.3859
vn -0.3460 -0.9167 -0.1998
vn 0.3859 -0.9167 -0.1034
vn 0.3460 -0.9167 -0.1998
vn -0.0000 -0.9167 0.3995
vn 0.1034 -0.9167 0.3859
vn -0.3859 -0.9167 -0.1034
vn 0.1998 -0.9167 0.3460
vn -0.3995 -0.9167 -0.0000
vn 0.2825 -0.9167 -0.2825
vn 0.1998 -0.9167 -0.3460
vn 0.2825 -0.9167 0.2825
vn -0.3859 -0.9167 0.1034
vn -0.0000 -0.9167 -0.3995
vn -0.3460 -0.9167 0.1998
vn 0.1034 -0.9167 -0.3859
vn -0.1034 -0.9167 -0.3859
vn 0.3460 -0.9167 0.1998
vn 0.4993 0.0523 0.8648
vn 0.2585 0.0523 0.9646
vn 0.2054 0.6083 0.7666
vn -0.9646 0.0523 0.2585
vn -0.9986 0.0523 -0.0000
vn -0.7937 0.6083 -0.0000
vn 0.4993 0.0523 -0.8648
vn 0.7061 0.0523 -0.7061
vn 0.5612 0.6083 -0.5612
vn 0.3968 0.6083 0.6874
vn 0.5612 0.6083 0.5612
vn -0.8648 0.0523 0.4993
vn -0.7666 0.6083 0.2054
vn 0.2585 0.0523 -0.9646
vn 0.3968 0.6083 -0.6874
vn -0.0000 0.0523 -0.9986
vn -0.0000 0.6083 -0.7937
vn -0.2054 0.6083 -0.7666
vn 0.8648 0.0523 0.4993
vn 0.7061 0.0523 0.7061
vn -0.7061 0.0523 0.7061
vn -0.6874 0.6083 0.3968
vn 0.2054 0.6083 -0.7666
vn -0.4993 0.0523 -0.8648
vn -0.2585 0.0523 -0.9646
vn 0.9646 0.0523 0.2585
vn 0.6874 0.6083 0.3968
vn -0.4993 0.0523 0.8648
vn -0.5612 0.6083 0.5612
vn -0.7061 0.0523 -0.7061
vn -0.3968 0.6083 -0.6874
vn 0.9986 0.0523 -0.0000
vn 0.7666 0.6083 0.2054
vn -0.3968 0.6083 0.6874
vn -0.2054 0.6083 0.7666
vn -0.8648 0.0523 -0.4993
vn -0.5612 0.6083 -0.5612
vn 0.9646 0.0523 -0.2585
vn 0.7937 0.6083 -0.0000
vn -0.2585 0.0523 0.9646
vn -0.0000 0.6083 0.7937
vn -0.6874 0.6083 -0.3968
vn -0.7666 0.6083 -0.2054
vn 0.8648 0.0523 -0.4993
vn 0.7666 0.6083 -0.2054
vn -0.0000 0.0523 0.9986
vn -0.9646 0.0523 -0.2585
vn 0.6874 0.6083 -0.3968
vn -0.2575 0.8572 -0.4460
vn 0.4974 0.8572 0.1333
vn -0.2575 0.8572 0.4460
vn -0.1333 0.8572 0.4974
vn -0.3642 0.8572 -0.3642
vn 0.5150 0.8572 -0.0000
vn 0.4974 0.8572 -0.1333
vn -0.4460 0.8572 -0.2575
vn -0.0000 0.8572 0.5150
vn 0.1333 0.8572 0.4974
vn -0.4974 0.8572 -0.1333
vn 0.4460 0.8572 -0.2575
vn 0.3642 0.8572 -0.3642
vn -0.5150 0.8572 -0.0000
vn -0.4974 0.8572 0.1333
vn 0.2575 0.8572 0.4460
vn 0.3642 0.8572 0.3642
vn 0.2575 0.8572 -0.4460
vn 0.1333 0.8572 -0.4974
vn -0.0000 0.8572 -0.5150
vn -0.1333 0.8572 -0.4974
vn -0.4460 0.8572 0.2575
vn -0.3642 0.8572 0.3642
vn 0.4460 0.8572 0.2575
vn -0.6283 0.4588 -0.6283
vn 0.8886 0.4588 -0.0000
vn -0.2300 0.4588 0.8583
vn -0.7695 0.4588 -0.4443
vn 0.8583 0.4588 -0.2300
vn -0.0000 0.4588 0.8886
vn -0.8583 0.4588 -0.2300
vn -0.8886 0.4588 -0.0000
vn 0.7695 0.4588 -0.4443
vn 0.2300 0.4588 0.8583
vn 0.6283 0.4588 -0.6283
vn 0.4443 0.4588 0.7695
vn -0.8583 0.4588 0.2300
vn -0.7695 0.4588 0.4443
vn 0.4443 0.4588 -0.7695
vn 0.2300 0.4588 -0.8583
vn -0.0000 0.4588 -0.8886
vn 0.6283 0.4588 0.6283
vn -0.6283 0.4588 0.6283
vn -0.2300 0.4588 -0.8583
vn 0.7695 0.4588 0.4443
vn -0.4443 0.4588 -0.7695
vn 0.8583 0.4588 0.2300
vn -0.4443 0.4588 0.7695
vn 0.4975 0.0995 0.8617
vn 0.7036 0.0995 0.7036
vn -0.9611 0.0994 0.2575
vn 0.4975 0.0995 -0.8617
vn -0.0000 0.0994 -0.9950
vn -0.8617 0.0995 0.4975
vn 0.2575 0.0994 -0.9611
vn -0.2575 0.0994 -0.9611
vn 0.8617 0.0995 0.4975
vn -0.7036 0.0995 0.7036
vn -0.4975 0.0995 -0.8617
vn 0.9611 0.0994 0.2575
vn -0.4975 0.0995 0.8617
vn -0.7036 0.0995 -0.7036
vn -0.8617 0.0995 -0.4975
vn 0.9950 0.0994 -0.0000
vn -0.2575 0.0994 0.9611
vn -0.0000 0.0994 0.9950
vn 0.9611 0.0994 -0.2575
vn -0.9611 0.0994 -0.2575
vn 0.8617 0.0995 -0.4975
vn 0.2575 0.0994 0.9611
vn -0.9950 0.0994 -0.0000
vn 0.7036 0.0995 -0.7036
vn 0.7918 -0.0595 0.6078
vn 0.0041 0.0009 -1.0000
vn 0.0307 -0.0010 0.9995
vn 0.1303 -0.0595 -0.9897
vn -0.0265 -0.0010 0.9996
vn -0.9222 -0.0595 0.3820
vt 0.000000 0.000000
s 1
usemtl nasta
f 188/1/1 25/1/1 187/1/1
f 181/1/1 25/1/1 180/1/1
f 196/1/1 25/1/1 195/1/1
f 189/1/1 25/1/1 188/1/1
f 182/1/1 25/1/1 181/1/1
f 197/1/1 25/1/1 196/1/1
f 190/1/1 25/1/1 189/1/1
f 183/1/1 25/1/1 182/1/1
f 198/1/1 25/1/1 197/1/1
f 191/1/1 25/1/1 190/1/1
f 184/1/1 25/1/1 183/1/1
f 199/1/1 25/1/1 198/1/1
f 176/1/1 25/1/1 177/1/1
f 192/1/1 25/1/1 191/1/1
f 185/1/1 25/1/1 184/1/1
f 177/1/1 25/1/1 199/1/1
f 178/1/1 25/1/1 176/1/1
f 193/1/1 25/1/1 192/1/1
f 186/1/1 25/1/1 185/1/1
f 179/1/1 25/1/1 178/1/1
f 194/1/1 25/1/1 193/1/1
f 187/1/1 25/1/1 186/1/1
f 180/1/1 25/1/1 179/1/1
f 195/1/1 25/1/1 194/1/1
f 22/1/2 21/1/3 46/1/4
f 15/1/5 14/1/6 39/1/7
f 8/1/8 7/1/9 32/1/10
f 23/1/11 22/1/2 47/1/12
f 16/1/13 15/1/5 40/1/14
f 9/1/15 8/1/8 33/1/16
f 24/1/17 23/1/11 48/1/18
f 2/1/19 1/1/20 26/1/21
f 17/1/22 16/1/13 41/1/23
f 10/1/24 9/1/15 34/1/25
f 1/1/20 24/1/17 49/1/26
f 3/1/27 2/1/19 27/1/28
f 18/1/29 17/1/22 42/1/30
f 11/1/31 10/1/24 35/1/32
f 4/1/33 3/1/27 28/1/34
f 19/1/35 18/1/29 43/1/36
f 12/1/37 11/1/31 36/1/38
f 5/1/39 4/1/33 29/1/40
f 20/1/41 19/1/35 44/1/42
f 13/1/43 12/1/37 37/1/44
f 6/1/45 5/1/39 30/1/46
f 21/1/3 20/1/41 45/1/47
f 14/1/6 13/1/43 38/1/48
f 7/1/9 6/1/45 31/1/49
f 35/1/32 209/1/50 210/1/51
f 29/1/40 28/1/34 202/1/52
f 44/1/42 43/1/36 217/1/53
f 37/1/44 36/1/38 210/1/51
f 30/1/46 29/1/40 203/1/54
f 45/1/47 44/1/42 218/1/55
f 38/1/48 37/1/44 211/1/56
f 31/1/49 30/1/46 204/1/57
f 45/1/47 219/1/58 220/1/59
f 38/1/48 212/1/60 213/1/61
f 32/1/10 31/1/49 205/1/62
f 47/1/12 46/1/4 220/1/59
f 39/1/7 213/1/61 214/1/63
f 33/1/16 32/1/10 206/1/64
f 47/1/12 221/1/65 222/1/66
f 40/1/14 214/1/63 215/1/67
f 34/1/25 33/1/16 207/1/68
f 49/1/26 48/1/18 222/1/66
f 27/1/28 26/1/21 201/1/69
f 42/1/30 41/1/23 215/1/67
f 35/1/32 34/1/25 208/1/70
f 26/1/21 49/1/26 223/1/71
f 28/1/34 27/1/28 200/1/72
f 43/1/36 42/1/30 216/1/73
f 64/1/74 63/1/75 87/1/76
f 57/1/77 56/1/78 80/1/79
f 72/1/80 71/1/81 95/1/82
f 64/1/74 88/1/83 89/1/84
f 58/1/85 57/1/77 81/1/86
f 73/1/87 72/1/80 96/1/88
f 50/1/89 74/1/90 75/1/91
f 66/1/92 65/1/93 89/1/84
f 59/1/94 58/1/85 82/1/95
f 73/1/87 97/1/96 74/1/90
f 52/1/97 51/1/98 75/1/91
f 67/1/99 66/1/92 90/1/100
f 60/1/101 59/1/94 83/1/102
f 53/1/103 52/1/97 76/1/104
f 68/1/105 67/1/99 91/1/106
f 60/1/101 84/1/107 85/1/108
f 54/1/109 53/1/103 77/1/110
f 69/1/111 68/1/105 92/1/112
f 61/1/113 85/1/108 86/1/114
f 54/1/109 78/1/115 79/1/116
f 70/1/117 69/1/111 93/1/118
f 63/1/75 62/1/119 86/1/114
f 56/1/78 55/1/120 79/1/116
f 70/1/117 94/1/121 95/1/82
f 77/1/110 76/1/104 100/1/122
f 92/1/112 91/1/106 115/1/123
f 84/1/107 108/1/124 109/1/125
f 78/1/115 77/1/110 101/1/126
f 92/1/112 116/1/127 117/1/128
f 86/1/114 85/1/108 109/1/125
f 79/1/116 78/1/115 102/1/129
f 94/1/121 93/1/118 117/1/128
f 86/1/114 110/1/130 111/1/131
f 80/1/79 79/1/116 103/1/132
f 94/1/121 118/1/133 119/1/134
f 88/1/83 87/1/76 111/1/131
f 80/1/79 104/1/135 105/1/136
f 96/1/88 95/1/82 119/1/134
f 88/1/83 112/1/137 113/1/138
f 82/1/95 81/1/86 105/1/136
f 96/1/88 120/1/139 121/1/140
f 74/1/90 98/1/141 99/1/142
f 90/1/100 89/1/84 113/1/138
f 82/1/95 106/1/143 107/1/144
f 74/1/90 97/1/96 121/1/140
f 76/1/104 75/1/91 99/1/142
f 91/1/106 90/1/100 114/1/145
f 84/1/107 83/1/102 107/1/144
f 102/1/129 101/1/126 125/1/146
f 117/1/128 116/1/127 140/1/147
f 110/1/130 109/1/125 133/1/148
f 103/1/132 102/1/129 126/1/149
f 118/1/133 117/1/128 141/1/150
f 111/1/131 110/1/130 134/1/151
f 103/1/132 127/1/152 128/1/153
f 119/1/134 118/1/133 142/1/154
f 112/1/137 111/1/131 135/1/155
f 105/1/136 104/1/135 128/1/153
f 120/1/139 119/1/134 143/1/156
f 113/1/138 112/1/137 136/1/157
f 105/1/136 129/1/158 130/1/159
f 120/1/139 144/1/160 145/1/161
f 99/1/142 98/1/141 122/1/162
f 114/1/145 113/1/138 137/1/163
f 106/1/143 130/1/159 131/1/164
f 98/1/141 121/1/140 145/1/161
f 100/1/122 99/1/142 123/1/165
f 115/1/123 114/1/145 138/1/166
f 108/1/124 107/1/144 131/1/164
f 100/1/122 124/1/167 125/1/146
f 115/1/123 139/1/168 140/1/147
f 109/1/125 108/1/124 132/1/169
f 136/1/157 238/1/170 239/1/171
f 130/1/159 129/1/158 231/1/172
f 145/1/161 144/1/160 246/1/173
f 123/1/165 122/1/162 225/1/174
f 138/1/166 137/1/163 239/1/171
f 131/1/164 130/1/159 232/1/175
f 122/1/162 145/1/161 247/1/176
f 124/1/167 123/1/165 224/1/177
f 139/1/168 138/1/166 240/1/178
f 132/1/169 131/1/164 233/1/179
f 125/1/146 124/1/167 226/1/180
f 140/1/147 139/1/168 241/1/181
f 133/1/148 132/1/169 234/1/182
f 125/1/146 227/1/183 228/1/184
f 141/1/150 140/1/147 242/1/185
f 133/1/148 235/1/186 236/1/187
f 127/1/152 126/1/149 228/1/184
f 142/1/154 141/1/150 243/1/188
f 135/1/155 134/1/151 236/1/187
f 128/1/153 127/1/152 229/1/189
f 143/1/156 142/1/154 244/1/190
f 136/1/157 135/1/155 237/1/191
f 129/1/158 128/1/153 230/1/192
f 144/1/160 143/1/156 245/1/193
f 153/1/1 154/1/1 250/1/1
f 168/1/1 169/1/1 248/1/1
f 146/1/1 147/1/1 248/1/1
f 161/1/1 162/1/1 249/1/1
f 154/1/1 155/1/1 250/1/1
f 169/1/1 146/1/1 248/1/1
f 147/1/1 148/1/1 248/1/1
f 162/1/1 163/1/1 249/1/1
f 155/1/1 156/1/1 250/1/1
f 148/1/1 149/1/1 248/1/1
f 163/1/1 164/1/1 249/1/1
f 156/1/1 157/1/1 250/1/1
f 150/1/1 248/1/1 149/1/1
f 164/1/1 165/1/1 249/1/1
f 158/1/1 250/1/1 157/1/1
f 150/1/1 151/1/1 250/1/1
f 166/1/1 249/1/1 165/1/1
f 158/1/1 159/1/1 249/1/1
f 151/1/1 152/1/1 250/1/1
f 166/1/1 167/1/1 248/1/1
f 159/1/1 160/1/1 249/1/1
f 152/1/1 153/1/1 250/1/1
f 167/1/1 168/1/1 248/1/1
f 160/1/1 161/1/1 249/1/1
f 22/1/2 46/1/4 47/1/12
f 15/1/5 39/1/7 40/1/14
f 8/1/8 32/1/10 33/1/16
f 23/1/11 47/1/12 48/1/18
f 16/1/13 40/1/14 41/1/23
f 9/1/15 33/1/16 34/1/25
f 24/1/17 48/1/18 49/1/26
f 2/1/19 26/1/21 27/1/28
f 17/1/22 41/1/23 42/1/30
f 10/1/24 34/1/25 35/1/32
f 1/1/20 49/1/26 26/1/21
f 3/1/27 27/1/28 28/1/34
f 18/1/29 42/1/30 43/1/36
f 11/1/31 35/1/32 36/1/38
f 4/1/33 28/1/34 29/1/40
f 19/1/35 43/1/36 44/1/42
f 12/1/37 36/1/38 37/1/44
f 5/1/39 29/1/40 30/1/46
f 20/1/41 44/1/42 45/1/47
f 13/1/43 37/1/44 38/1/48
f 6/1/45 30/1/46 31/1/49
f 21/1/3 45/1/47 46/1/4
f 14/1/6 38/1/48 39/1/7
f 7/1/9 31/1/49 32/1/10
f 35/1/32 210/1/51 36/1/38
f 29/1/40 202/1/52 203/1/54
f 44/1/42 217/1/53 218/1/55
f 37/1/44 210/1/51 211/1/56
f 30/1/46 203/1/54 204/1/57
f 45/1/47 218/1/55 219/1/58
f 38/1/48 211/1/56 212/1/60
f 31/1/49 204/1/57 205/1/62
f 45/1/47 220/1/59 46/1/4
f 38/1/48 213/1/61 39/1/7
f 32/1/10 205/1/62 206/1/64
f 47/1/12 220/1/59 221/1/65
f 39/1/7 214/1/63 40/1/14
f 33/1/16 206/1/64 207/1/68
f 47/1/12 222/1/66 48/1/18
f 40/1/14 215/1/67 41/1/23
f 34/1/25 207/1/68 208/1/70
f 49/1/26 222/1/66 223/1/71
f 27/1/28 201/1/69 200/1/72
f 42/1/30 215/1/67 216/1/73
f 35/1/32 208/1/70 209/1/50
f 26/1/21 223/1/71 201/1/69
f 28/1/34 200/1/72 202/1/52
f 43/1/36 216/1/73 217/1/53
f 64/1/74 87/1/76 88/1/83
f 57/1/77 80/1/79 81/1/86
f 72/1/80 95/1/82 96/1/88
f 64/1/74 89/1/84 65/1/93
f 58/1/85 81/1/86 82/1/95
f 73/1/87 96/1/88 97/1/96
f 50/1/89 75/1/91 51/1/98
f 66/1/92 89/1/84 90/1/100
f 59/1/94 82/1/95 83/1/102
f 73/1/87 74/1/90 50/1/89
f 52/1/97 75/1/91 76/1/104
f 67/1/99 90/1/100 91/1/106
f 60/1/101 83/1/102 84/1/107
f 53/1/103 76/1/104 77/1/110
f 68/1/105 91/1/106 92/1/112
f 60/1/101 85/1/108 61/1/113
f 54/1/109 77/1/110 78/1/115
f 69/1/111 92/1/112 93/1/118
f 61/1/113 86/1/114 62/1/119
f 54/1/109 79/1/116 55/1/120
f 70/1/117 93/1/118 94/1/121
f 63/1/75 86/1/114 87/1/76
f 56/1/78 79/1/116 80/1/79
f 70/1/117 95/1/82 71/1/81
f 77/1/110 100/1/122 101/1/126
f 92/1/112 115/1/123 116/1/127
f 84/1/107 109/1/125 85/1/108
f 78/1/115 101/1/126 102/1/129
f 92/1/112 117/1/128 93/1/118
f 86/1/114 109/1/125 110/1/130
f 79/1/116 102/1/129 103/1/132
f 94/1/121 117/1/128 118/1/133
f 86/1/114 111/1/131 87/1/76
f 80/1/79 103/1/132 104/1/135
f 94/1/121 119/1/134 95/1/82
f 88/1/83 111/1/131 112/1/137
f 80/1/79 105/1/136 81/1/86
f 96/1/88 119/1/134 120/1/139
f 88/1/83 113/1/138 89/1/84
f 82/1/95 105/1/136 106/1/143
f 96/1/88 121/1/140 97/1/96
f 74/1/90 99/1/142 75/1/91
f 90/1/100 113/1/138 114/1/145
f 82/1/95 107/1/144 83/1/102
f 74/1/90 121/1/140 98/1/141
f 76/1/104 99/1/142 100/1/122
f 91/1/106 114/1/145 115/1/123
f 84/1/107 107/1/144 108/1/124
f 102/1/129 125/1/146 126/1/149
f 117/1/128 140/1/147 141/1/150
f 110/1/130 133/1/148 134/1/151
f 103/1/132 126/1/149 127/1/152
f 118/1/133 141/1/150 142/1/154
f 111/1/131 134/1/151 135/1/155
f 103/1/132 128/1/153 104/1/135
f 119/1/134 142/1/154 143/1/156
f 112/1/137 135/1/155 136/1/157
f 105/1/136 128/1/153 129/1/158
f 120/1/139 143/1/156 144/1/160
f 113/1/138 136/1/157 137/1/163
f 105/1/136 130/1/159 106/1/143
f 120/1/139 145/1/161 121/1/140
f 99/1/142 122/1/162 123/1/165
f 114/1/145 137/1/163 138/1/166
f 106/1/143 131/1/164 107/1/144
f 98/1/141 145/1/161 122/1/162
f 100/1/122 123/1/165 124/1/167
f 115/1/123 138/1/166 139/1/168
f 108/1/124 131/1/164 132/1/169
f 100/1/122 125/1/146 101/1/126
f 115/1/123 140/1/147 116/1/127
f 109/1/125 132/1/169 133/1/148
f 136/1/157 239/1/171 137/1/163
f 130/1/159 231/1/172 232/1/175
f 145/1/161 246/1/173 247/1/176
f 123/1/165 225/1/174 224/1/177
f 138/1/166 239/1/171 240/1/178
f 131/1/164 232/1/175 233/1/179
f 122/1/162 247/1/176 225/1/174
f 124/1/167 224/1/177 226/1/180
f 139/1/168 240/1/178 241/1/181
f 132/1/169 233/1/179 234/1/182
f 125/1/146 226/1/180 227/1/183
f 140/1/147 241/1/181 242/1/185
f 133/1/148 234/1/182 235/1/186
f 125/1/146 228/1/184 126/1/149
f 141/1/150 242/1/185 243/1/188
f 133/1/148 236/1/187 134/1/151
f 127/1/152 228/1/184 229/1/189
f 142/1/154 243/1/188 244/1/190
f 135/1/155 236/1/187 237/1/191
f 128/1/153 229/1/189 230/1/192
f 143/1/156 244/1/190 245/1/193
f 136/1/157 237/1/191 238/1/170
f 129/1/158 230/1/192 231/1/172
f 144/1/160 245/1/193 246/1/173
f 150/1/1 250/1/1 248/1/1
f 158/1/1 249/1/1 250/1/1
f 166/1/1 248/1/1 249/1/1
usemtl harmaa
f 172/1/194 173/1/195 175/1/196
f 170/1/197 175/1/196 174/1/198
f 171/1/199 174/1/198 173/1/195
f 172/1/194 175/1/196 170/1/197
f 170/1/197 174/1/198 171/1/199
f 171/1/199 173/1/195 172/1/194
