# Blender 4.3.0
# www.blender.org
mtllib pyramidscheme.mtl
o Cube
v 1.000000 -1.466874 -1.000000
v 1.000000 -1.466874 1.000000
v 0.000000 0.033126 0.000000
v -1.000000 -1.466874 -1.000000
v -1.000000 -1.466874 1.000000
v -0.929346 -1.360893 0.800000
v -0.929346 -1.360893 -0.800000
v -0.129346 -0.160893 0.000000
v -0.836020 -1.466874 0.836020
v 0.836020 -1.466874 0.836020
v -0.836020 -1.466874 -0.836020
v 0.836020 -1.466874 -0.836020
v -0.800000 -1.360893 -0.929346
v 0.800000 -1.360893 -0.929346
v 0.000000 -0.160893 -0.129346
v 0.929346 -1.360893 0.800000
v 0.929346 -1.360893 -0.800000
v 0.129346 -0.160893 0.000000
v -0.800000 -1.360893 0.929346
v 0.800000 -1.360893 0.929346
v 0.000000 -0.160893 0.129346
v 0.000000 -0.046947 0.000000
v 0.000000 0.033126 0.000000
v 0.000000 0.033126 0.000000
v 0.000000 0.033126 0.000000
v -1.000000 -1.466874 1.000000
v -1.000000 -1.466874 1.000000
v -1.000000 -1.466874 -1.000000
v -1.000000 -1.466874 -1.000000
v -0.929346 -1.360893 -0.800000
v -0.129346 -0.160893 0.000000
v -0.129346 -0.160893 0.000000
v -0.929346 -1.360893 0.800000
v -0.836020 -1.466874 0.836020
v -0.836020 -1.466874 -0.836020
v 0.836020 -1.466874 -0.836020
v 0.836020 -1.466874 0.836020
v 1.000000 -1.466874 -1.000000
v 1.000000 -1.466874 -1.000000
v 1.000000 -1.466874 1.000000
v 1.000000 -1.466874 1.000000
v 0.800000 -1.360893 -0.929346
v 0.000000 -0.160893 -0.129346
v 0.000000 -0.160893 -0.129346
v -0.800000 -1.360893 -0.929346
v 0.929346 -1.360893 -0.800000
v 0.129346 -0.160893 0.000000
v 0.129346 -0.160893 0.000000
v 0.929346 -1.360893 0.800000
v 0.800000 -1.360893 0.929346
v 0.000000 -0.160893 0.129346
v 0.000000 -0.160893 0.129346
v -0.800000 -1.360893 0.929346
v 0.000000 -0.046947 0.000000
v 0.000000 -0.046947 0.000000
v 0.000000 -0.046947 0.000000
vn 0.8321 0.5547 -0.0000
vn -0.0000 0.5547 0.8321
vn -0.0000 0.5547 -0.8321
vn 0.8799 0.1347 -0.4557
vn 0.8799 0.1347 0.4557
vn 0.5299 -0.6622 0.5299
vn 0.5255 0.6691 -0.5255
vn -0.0000 -1.0000 -0.0000
vn 0.5255 0.6691 0.5255
vn -0.5255 0.6691 0.5255
vn 0.4557 0.1347 0.8799
vn -0.4557 0.1347 0.8799
vn -0.8799 0.1347 -0.4557
vn -0.8799 0.1347 0.4557
vn -0.5299 -0.6622 -0.5299
vn 0.4557 0.1347 -0.8799
vn -0.4557 0.1347 -0.8799
vn 0.5299 -0.6622 -0.5299
vn -0.5514 -0.6260 -0.5514
vn -0.8321 0.5547 -0.0000
vn -0.5255 0.6691 -0.5255
vn -0.5299 -0.6622 0.5299
vn -0.5514 -0.6260 0.5514
vn 0.5514 -0.6260 0.5514
vn 0.5514 -0.6260 -0.5514
vt 0.000000 0.000000
s 1
usemtl Material
f 23/1/20 30/1/20 31/1/20
f 26/1/20 30/1/20 28/1/20
f 20/1/17 16/1/13 37/1/21
f 37/1/21 17/1/14 12/1/10
f 38/1/8 35/1/8 29/1/8
f 40/1/8 27/1/8 10/1/8
f 24/1/3 42/1/3 43/1/3
f 4/1/3 42/1/3 39/1/3
f 14/1/12 11/1/9 12/1/10
f 25/1/1 49/1/1 47/1/1
f 41/1/1 46/1/1 49/1/1
f 9/1/7 20/1/17 37/1/21
f 3/1/2 53/1/2 51/1/2
f 5/1/2 50/1/2 53/1/2
f 6/1/4 11/1/9 7/1/5
f 14/1/12 12/1/10 17/1/14
f 9/1/7 6/1/4 19/1/16
f 14/1/12 48/1/22 44/1/22
f 16/1/13 52/1/15 18/1/15
f 21/1/18 6/1/4 32/1/18
f 7/1/5 15/1/6 8/1/6
f 11/1/9 13/1/11 7/1/5
f 8/1/6 15/1/6 55/1/24
f 21/1/18 32/1/18 56/1/25
f 44/1/22 48/1/22 54/1/23
f 18/1/15 52/1/15 22/1/19
f 33/1/20 26/1/20 23/1/20
f 23/1/20 28/1/20 30/1/20
f 31/1/20 33/1/20 23/1/20
f 26/1/20 33/1/20 30/1/20
f 37/1/21 16/1/13 17/1/14
f 38/1/8 36/1/8 35/1/8
f 10/1/8 36/1/8 38/1/8
f 27/1/8 29/1/8 35/1/8
f 27/1/8 35/1/8 34/1/8
f 10/1/8 38/1/8 40/1/8
f 27/1/8 34/1/8 10/1/8
f 45/1/3 4/1/3 24/1/3
f 24/1/3 39/1/3 42/1/3
f 43/1/3 45/1/3 24/1/3
f 4/1/3 45/1/3 42/1/3
f 14/1/12 13/1/11 11/1/9
f 47/1/1 46/1/1 1/1/1
f 25/1/1 41/1/1 49/1/1
f 47/1/1 1/1/1 25/1/1
f 41/1/1 1/1/1 46/1/1
f 9/1/7 19/1/16 20/1/17
f 51/1/2 50/1/2 2/1/2
f 3/1/2 5/1/2 53/1/2
f 51/1/2 2/1/2 3/1/2
f 5/1/2 2/1/2 50/1/2
f 6/1/4 9/1/7 11/1/9
f 14/1/12 17/1/14 48/1/22
f 16/1/13 20/1/17 52/1/15
f 21/1/18 19/1/16 6/1/4
f 7/1/5 13/1/11 15/1/6
