# Blender 4.1.1
# www.blender.org
mtllib temp_room.mtl
o Cube
v 8.785783 -2.163882 -8.434276
v 8.785783 4.704669 3.434276
v 8.785783 -2.163882 3.434276
v -0.082768 4.704669 -8.434276
v -0.082768 -2.163882 -8.434276
v -0.082768 4.704669 3.434276
v -0.082768 -2.163882 3.434276
vn -0.0000 -0.0000 -1.0000
vn 1.0000 -0.0000 -0.0000
vn -0.0000 1.0000 -0.0000
vt 0.375000 8.500000
vt 4.375000 8.500000
vt 4.375000 4.500000
vt 0.375000 4.500000
vt -0.937251 1.960659
vt 3.062749 1.960658
vt 3.062748 -2.039341
vt -0.937251 -2.039341
vt -3.625000 0.500000
vt -3.625000 4.500000
vt 0.375000 0.500000
s 0
usemtl Material
f 3/1/1 7/2/1 6/3/1 2/4/1
f 7/5/2 5/6/2 4/7/2 6/8/2
f 5/9/3 7/10/3 3/4/3 1/11/3
