# Blender 4.1.1
# www.blender.org
mtllib ufobeam.mtl
o Sphere.001
v 0.171629 0.435165 -0.640527
v 0.331561 0.435165 -0.574281
v 0.468899 0.435165 -0.468899
v 0.574281 0.435165 -0.331561
v 0.640527 0.435165 -0.171629
v 0.663123 0.435165 -0.000000
v 0.640527 0.435165 0.171629
v 0.574281 0.435165 0.331561
v 0.468899 0.435165 0.468899
v 0.331561 0.435165 0.574281
v 0.171629 0.435165 0.640527
v 0.000000 0.435165 0.663123
v -0.171629 0.435165 0.640527
v -0.331561 0.435165 0.574281
v -0.468899 0.435165 0.468899
v -0.574281 0.435165 0.331562
v -0.640527 0.435165 0.171629
v -0.663123 0.435165 -0.000000
v -0.640527 0.435165 -0.171629
v -0.574281 0.435165 -0.331561
v -0.468899 0.435165 -0.468898
v -0.331562 0.435165 -0.574281
v -0.171629 0.435165 -0.640527
v 0.000000 0.435165 -0.663123
v 0.304687 1.688896 -1.137105
v 0.588608 1.998034 -1.019500
v 0.832420 1.688896 -0.832420
v 1.019500 1.998034 -0.588608
v 1.137105 1.688896 -0.304687
v 1.177218 1.998034 -0.000000
v 1.137105 1.688896 0.304687
v 1.019500 1.998034 0.588608
v 0.832420 1.688896 0.832419
v 0.588608 1.998034 1.019500
v 0.304687 1.688896 1.137104
v 0.000000 1.998034 1.177218
v -0.304687 1.688896 1.137104
v -0.588608 1.998034 1.019500
v -0.832419 1.688896 0.832419
v -1.019500 1.998034 0.588610
v -1.137104 1.688896 0.304687
v -1.177218 1.998034 -0.000000
v -1.137104 1.688896 -0.304687
v -1.019500 1.998034 -0.588608
v -0.832419 1.688896 -0.832418
v -0.588610 1.998034 -1.019500
v -0.304687 1.688896 -1.137105
v 0.000000 1.998034 -1.177218
vn 0.4713 -0.3339 -0.8163
vn 0.6617 -0.3524 -0.6617
vn -0.0000 -0.3339 0.9426
vn -0.2422 -0.3524 0.9039
vn 0.8163 -0.3339 -0.4713
vn 0.4713 -0.3339 0.8163
vn 0.2422 -0.3524 0.9039
vn -0.6617 -0.3524 0.6617
vn -0.8163 -0.3339 0.4713
vn -0.9040 -0.3524 0.2422
vn -0.9426 -0.3339 -0.0000
vn -0.9039 -0.3524 -0.2422
vn -0.4713 -0.3339 -0.8163
vn -0.2422 -0.3524 -0.9040
vn -0.0000 -0.3339 -0.9426
vn 0.2422 -0.3524 -0.9039
vn 0.9039 -0.3524 -0.2422
vn 0.9426 -0.3339 -0.0000
vn 0.9039 -0.3524 0.2422
vn 0.8163 -0.3339 0.4713
vn -0.8163 -0.3339 -0.4713
vn -0.6617 -0.3524 -0.6617
vn -0.4713 -0.3339 0.8163
vn 0.6617 -0.3524 0.6617
vt 0.686843 1.000000
vt 0.750000 0.043406
vt 0.853553 0.043405
vt 0.764237 1.000000
vt 0.500000 1.000000
vt 0.500000 0.043405
vt 0.370590 0.043405
vt 0.403283 1.000000
vt 0.933012 0.043405
vt 0.823621 1.000000
vt 0.750000 0.043405
vt 0.629410 0.043405
vt 0.596717 1.000000
vt 0.235764 1.000000
vt 0.146446 0.043405
vt 0.066988 0.043405
vt 0.176379 1.000000
vt 0.017038 0.043405
vt 0.139047 1.000000
vt 0.126314 1.000000
vt 0.000000 0.043405
vt 0.313157 1.000000
vt 0.250000 0.043406
vt 0.370590 0.043406
vt 0.403283 1.000000
vt 0.500000 1.000000
vt 0.500000 0.043406
vt 0.629410 0.043406
vt 0.596717 1.000000
vt 0.860953 1.000000
vt 0.982963 0.043405
vt 1.000000 0.043405
vt 0.873686 1.000000
vt 0.250000 0.043405
vt 0.313157 1.000000
s 1
usemtl None
f 2/1/1 26/2/1 27/3/2 3/4/2
f 12/5/3 36/6/3 37/7/4 13/8/4
f 3/4/2 27/3/2 28/9/5 4/10/5
f 10/1/6 34/11/6 35/12/7 11/13/7
f 15/14/8 39/15/8 40/16/9 16/17/9
f 11/13/7 35/12/7 36/6/3 12/5/3
f 16/17/9 40/16/9 41/18/10 17/19/10
f 18/20/11 42/21/11 43/18/12 19/19/12
f 17/19/10 41/18/10 42/21/11 18/20/11
f 22/22/13 46/23/13 47/24/14 23/25/14
f 24/26/15 48/27/15 25/28/16 1/29/16
f 23/25/14 47/24/14 48/27/15 24/26/15
f 5/30/17 29/31/17 30/32/18 6/33/18
f 1/29/16 25/28/16 26/2/1 2/1/1
f 7/30/19 31/31/19 32/9/20 8/10/20
f 6/33/18 30/32/18 31/31/19 7/30/19
f 20/17/21 44/16/21 45/15/22 21/14/22
f 4/10/5 28/9/5 29/31/17 5/30/17
f 13/8/4 37/7/4 38/34/23 14/35/23
f 21/14/22 45/15/22 46/23/13 22/22/13
f 8/10/20 32/9/20 33/3/24 9/4/24
f 19/19/12 43/18/12 44/16/21 20/17/21
f 9/4/24 33/3/24 34/11/6 10/1/6
f 14/35/23 38/34/23 39/15/8 15/14/8
