# Blender v2.93.5 OBJ File: 'investigationboard.blend'
# www.blender.org
mtllib investigationboard.mtl
o Cube
v 0.027877 1.113817 -1.673270
v 0.027877 -1.108672 -1.673270
v 0.027877 1.113817 1.716284
v 0.027877 -1.108672 1.716284
v -0.074225 -1.153620 -1.718218
v -0.074225 -1.153620 1.761232
v 0.027877 -1.153620 -1.718218
v 0.027877 1.158765 -1.718218
v -0.074225 1.158765 1.761232
v 0.027877 1.158765 1.761232
v 0.027877 -1.153620 1.761232
v -0.074225 1.158765 -1.718218
v -0.006087 1.113817 -1.673270
v -0.006087 -1.108672 -1.673270
v -0.006087 1.113817 1.716284
v -0.006087 -1.108672 1.716284
v -0.006087 0.002573 -1.673270
v -0.006087 0.002573 1.716284
v -0.006087 1.113817 0.021507
v -0.006087 -1.108672 0.021507
v -0.006087 0.002573 0.021507
v -0.006087 -0.553050 -1.673270
v -0.006087 -0.553050 1.716284
v -0.006087 1.113817 0.868896
v -0.006087 -1.108672 -0.825881
v -0.006087 0.558195 -1.673270
v -0.006087 0.558195 1.716284
v -0.006087 1.113817 -0.825881
v -0.006087 -1.108672 0.868896
v -0.006087 0.002573 0.868896
v -0.006087 0.002573 -0.825881
v -0.006087 -0.553050 0.021507
v -0.006087 0.558195 0.021507
v -0.006087 0.558195 -0.825881
v -0.006087 -0.553050 -0.825881
v -0.006087 -0.553050 0.868896
v -0.006087 0.558195 0.868896
v -0.006087 -0.830861 -1.673270
v -0.006087 -0.830861 1.716284
v -0.006087 1.113817 1.292590
v -0.006087 -1.108672 -1.249575
v -0.006087 0.280384 -1.673270
v -0.006087 0.280384 1.716284
v -0.006087 1.113817 -0.402187
v -0.006087 -1.108672 0.445201
v -0.006087 0.002573 1.292590
v -0.006087 0.002573 -0.402187
v -0.006087 -0.830861 0.021507
v -0.006087 0.280384 0.021507
v -0.006087 -0.275238 -1.673270
v -0.006087 -0.275238 1.716284
v -0.006087 1.113817 0.445201
v -0.006087 -1.108672 -0.402187
v -0.006087 0.836006 -1.673270
v -0.006087 0.836006 1.716284
v -0.006087 1.113817 -1.249575
v -0.006087 -1.108672 1.292590
v -0.006087 0.002573 0.445201
v -0.006087 0.002573 -1.249575
v -0.006087 -0.275238 0.021507
v -0.006087 0.836006 0.021507
v -0.006087 0.558195 -0.402187
v -0.006087 0.558195 -1.249575
v -0.006087 0.280384 -0.825881
v -0.006087 0.836006 -0.825881
v -0.006087 -0.553050 -0.402187
v -0.006087 -0.553050 -1.249575
v -0.006087 -0.830861 -0.825881
v -0.006087 -0.275238 -0.825881
v -0.006087 -0.553050 1.292590
v -0.006087 -0.553050 0.445201
v -0.006087 -0.830861 0.868896
v -0.006087 -0.275238 0.868896
v -0.006087 0.558195 1.292590
v -0.006087 0.558195 0.445201
v -0.006087 0.280384 0.868896
v -0.006087 0.836006 0.868896
v -0.006087 0.836006 0.445201
v -0.006087 0.280384 0.445201
v -0.006087 0.280384 1.292590
v -0.006087 -0.275238 0.445201
v -0.006087 -0.830861 0.445201
v -0.006087 -0.830861 1.292590
v -0.006087 -0.275238 -1.249575
v -0.006087 -0.830861 -1.249575
v -0.006087 -0.830861 -0.402187
v -0.006087 0.836006 -1.249575
v -0.006087 0.280384 -1.249575
v -0.006087 0.280384 -0.402187
v -0.006087 0.836006 -0.402187
v -0.006087 -0.275238 -0.402187
v -0.006087 -0.275238 1.292590
v -0.006087 0.836006 1.292590
vt 0.990026 0.964559
vt 0.015862 0.964559
vt 0.002944 0.951641
vt 1.002944 0.951641
vt 0.063699 0.916769
vt 0.702447 0.916769
vt 0.715365 0.929688
vt 0.050781 0.929688
vt 0.819829 0.917233
vt 0.181082 0.917233
vt 0.181082 0.907472
vt 0.260925 0.907472
vt 0.340769 0.907472
vt 0.420612 0.907472
vt 0.500455 0.907472
vt 0.580299 0.907472
vt 0.660142 0.907472
vt 0.739986 0.907472
vt 0.819829 0.907472
vt 0.901665 0.891824
vt 0.262918 0.891824
vt 0.250000 0.878906
vt 0.914584 0.878906
vt 0.017929 0.921657
vt 0.017929 0.892313
vt 1.017929 0.892313
vt 1.017929 0.921657
vt 0.181082 0.946517
vt 0.845665 0.946517
vt 0.845665 0.975861
vt 0.181082 0.975861
vt 0.002944 0.951641
vt 0.002944 0.922297
vt 1.002944 0.922297
vt 1.002944 0.951641
vt 0.294342 0.944590
vt 0.958925 0.944590
vt 0.958925 0.973934
vt 0.294342 0.973934
vt 0.026941 0.938605
vt 1.001105 0.938605
vt 1.014023 0.951523
vt 0.014023 0.951523
vt 1.173365 0.445227
vt 1.173365 0.039466
vt 0.528100 0.039466
vt 0.528100 0.445227
vt 0.294342 0.885962
vt 0.933089 0.885962
vt 0.933089 0.895723
vt 0.853245 0.895723
vt 0.773402 0.895723
vt 0.693559 0.895723
vt 0.613715 0.895723
vt 0.533872 0.895723
vt 0.454028 0.895723
vt 0.374185 0.895723
vt 0.294342 0.895723
vt 1.031795 0.904577
vt 0.057631 0.904577
vt 0.057631 0.894815
vt 0.179402 0.894815
vt 0.301172 0.894815
vt 0.422943 0.894815
vt 0.544713 0.894815
vt 0.666483 0.894815
vt 0.788254 0.894815
vt 0.910024 0.894815
vt 1.031795 0.894815
vt -0.005508 0.982071
vt 0.968655 0.982071
vt 0.968655 0.991832
vt 0.846885 0.991832
vt 0.725114 0.991832
vt 0.603344 0.991832
vt 0.481573 0.991832
vt 0.359803 0.991832
vt 0.238032 0.991832
vt 0.116262 0.991832
vt -0.005508 0.991832
vt -0.545384 0.434018
vt -0.545384 0.024521
vt -1.190649 0.024521
vt -1.190649 0.434018
vt 0.955457 0.632444
vt 0.955457 0.222946
vt 0.310193 0.222946
vt 0.310193 0.632444
vt 1.145050 0.445227
vt 1.145050 0.039466
vt 0.499785 0.039466
vt 0.499785 0.445227
vt 1.145050 0.435709
vt 1.145050 0.024166
vt 0.499785 0.024166
vt 0.499785 0.435709
vt 1.240267 0.638834
vt 1.240267 0.227291
vt 0.595002 0.227291
vt 0.595002 0.638834
vt 2.435579 0.445227
vt 2.435579 0.039466
vt 1.790314 0.039466
vt 1.790314 0.445227
vt 1.203489 0.729611
vt 1.203489 0.314331
vt 0.558224 0.314331
vt 0.558224 0.729611
vt 0.013704 0.431973
vt 0.013704 0.016693
vt -0.631561 0.016693
vt -0.631561 0.431973
vt 0.013704 0.434018
vt 0.013704 0.024521
vt -0.631561 0.024521
vt -0.631561 0.434018
vt 0.032741 0.721035
vt 0.032741 0.305756
vt -0.612524 0.305756
vt -0.612524 0.721035
vt 0.745145 0.431973
vt 0.745145 0.016693
vt 0.099880 0.016693
vt 0.099880 0.431973
vt 0.745145 0.434018
vt 0.745145 0.024521
vt 0.099880 0.024521
vt 0.099880 0.434018
vt 1.173365 0.435709
vt 1.173365 0.024166
vt 0.528100 0.024166
vt 0.528100 0.435709
vt 2.463894 0.435709
vt 2.463894 0.024166
vt 1.818630 0.024166
vt 1.818630 0.435709
vt 2.463894 0.445227
vt 2.463894 0.039466
vt 1.818630 0.039466
vt 1.818630 0.445227
vt 2.339879 0.297000
vt 2.339879 0.718062
vt 1.694614 0.718062
vt 1.694614 0.297000
vt 3.109159 0.024166
vt 3.109159 0.445227
vt 3.109159 0.039466
vt 2.463894 0.020430
vt 1.818630 0.020430
vt 3.109159 0.020430
vt 3.109159 0.435709
vt 0.602893 0.392477
vt 0.602893 0.807756
vt -0.042372 0.807756
vt -0.042372 0.392477
vt 0.876110 0.268461
vt 0.876110 0.683741
vt 0.230846 0.683741
vt 0.230846 0.268461
vt 0.876110 0.272197
vt 0.230846 0.272197
vt 1.273222 0.274506
vt 1.273222 0.691831
vt 0.627957 0.691831
vt 0.627957 0.274506
vt 1.390410 0.434018
vt 1.390410 0.024521
vt 0.745145 0.020430
vt 0.099880 0.020430
vt 1.043166 0.342870
vt 1.043166 0.754414
vt 0.397901 0.754414
vt 0.397901 0.342870
vt 1.390410 0.431973
vt 1.390410 0.016693
vt 0.868678 0.348555
vt 0.868678 0.760098
vt 0.223413 0.760098
vt 0.223413 0.348555
vt -0.545384 0.431973
vt -0.545384 0.020430
vt 1.482693 0.806973
vt 1.482693 0.391693
vt 0.837428 0.391693
vt 0.837428 0.806973
vt 0.658969 0.016693
vt 0.658969 0.434018
vt 0.658969 0.024521
vt 0.013704 0.020430
vt -0.631561 0.020430
vt 0.658969 0.020430
vt 0.658969 0.431973
vt -1.276825 0.020430
vt -1.276825 0.431973
vt -1.922090 0.431973
vt -1.922090 0.020430
vt -1.276825 0.016693
vt 2.435579 0.024166
vt 1.790314 0.024166
vt 3.080843 0.024166
vt 3.080843 0.445227
vt 3.080843 0.039466
vt 2.435579 0.020430
vt 2.435579 0.435709
vt 1.790314 0.435709
vt 1.790314 0.020430
vt 3.080843 0.020430
vt 3.080843 0.435709
vt 1.027862 0.278242
vt 1.027862 0.693522
vt 0.382597 0.693522
vt 0.382597 0.278242
vt 1.145050 0.020430
vt 1.046220 0.222591
vt 1.046220 0.643653
vt 0.400955 0.643653
vt 0.400955 0.222591
vt -1.276825 0.434018
vt -1.922090 0.434018
vt -1.922090 0.016693
vt 0.274689 0.730893
vt 0.274689 0.321395
vt -0.370576 0.321395
vt -0.370576 0.730893
vt 0.821803 0.157318
vt 0.821803 0.574643
vt 0.176538 0.574643
vt 0.176538 0.157318
vt -0.545384 0.016693
vt 0.801318 0.222591
vt 0.801318 0.643653
vt 0.156053 0.643653
vt 0.156053 0.222591
vt 0.876110 0.693259
vt 0.230846 0.693259
vn 1.0000 0.0000 0.0000
vn -0.0000 0.0000 -1.0000
vn 0.0000 1.0000 0.0000
vn 0.0000 0.0000 1.0000
vn 0.0000 -1.0000 0.0000
usemtl Material
s off
f 2/1/1 4/2/1 11/3/1 7/4/1
f 1/5/1 2/6/1 7/7/1 8/8/1
f 3/9/2 4/10/2 16/11/2 39/12/2 23/13/2 51/14/2 18/15/2 43/16/2 27/17/2 55/18/2 15/19/2
f 4/20/1 3/21/1 10/22/1 11/23/1
f 8/24/3 12/25/3 9/26/3 10/27/3
f 11/28/4 10/29/4 9/30/4 6/31/4
f 5/32/5 7/33/5 11/34/5 6/35/5
f 5/36/2 12/37/2 8/38/2 7/39/2
f 3/40/1 1/41/1 8/42/1 10/43/1
f 93/44/1 40/45/1 15/46/1 55/47/1
f 2/48/4 1/49/4 13/50/4 54/51/4 26/52/4 42/53/4 17/54/4 50/55/4 22/56/4 38/57/4 14/58/4
f 4/59/3 2/60/3 14/61/3 41/62/3 25/63/3 53/64/3 20/65/3 45/66/3 29/67/3 57/68/3 16/69/3
f 1/70/5 3/71/5 15/72/5 40/73/5 24/74/5 52/75/5 19/76/5 44/77/5 28/78/5 56/79/5 13/80/5
f 92/81/1 46/82/1 18/83/1 51/84/1
f 91/85/1 47/86/1 21/87/1 60/88/1
f 90/89/1 44/90/1 19/91/1 61/92/1
f 89/93/1 62/94/1 33/95/1 49/96/1
f 88/97/1 63/98/1 34/99/1 64/100/1
f 87/101/1 56/102/1 28/103/1 65/104/1
f 86/105/1 66/106/1 32/107/1 48/108/1
f 85/109/1 67/110/1 35/111/1 68/112/1
f 84/113/1 59/114/1 31/115/1 69/116/1
f 83/117/1 70/118/1 23/119/1 39/120/1
f 82/121/1 71/122/1 36/123/1 72/124/1
f 81/125/1 58/126/1 30/127/1 73/128/1
f 80/129/1 74/130/1 27/131/1 43/132/1
f 79/133/1 75/134/1 37/135/1 76/136/1
f 78/137/1 52/138/1 24/139/1 77/140/1
f 75/141/1 78/142/1 77/143/1 37/144/1
f 33/145/1 61/146/1 78/137/1 75/134/1
f 61/146/1 19/147/1 52/138/1 78/137/1
f 58/148/1 79/133/1 76/136/1 30/149/1
f 21/150/1 49/151/1 79/133/1 58/148/1
f 49/151/1 33/145/1 75/134/1 79/133/1
f 46/152/1 80/153/1 43/154/1 18/155/1
f 30/156/1 76/157/1 80/158/1 46/159/1
f 76/157/1 37/160/1 74/161/1 80/158/1
f 71/122/1 81/125/1 73/128/1 36/123/1
f 32/162/1 60/163/1 81/164/1 71/165/1
f 60/166/1 21/167/1 58/126/1 81/125/1
f 45/168/1 82/121/1 72/124/1 29/169/1
f 20/170/1 48/171/1 82/172/1 45/173/1
f 48/174/1 32/175/1 71/122/1 82/121/1
f 57/176/1 83/177/1 39/178/1 16/179/1
f 29/169/1 72/124/1 83/180/1 57/181/1
f 72/182/1 36/183/1 70/184/1 83/185/1
f 67/110/1 84/113/1 69/116/1 35/111/1
f 22/186/1 50/187/1 84/113/1 67/110/1
f 50/187/1 17/188/1 59/114/1 84/113/1
f 41/189/1 85/109/1 68/112/1 25/190/1
f 14/191/1 38/192/1 85/109/1 41/189/1
f 38/192/1 22/186/1 67/110/1 85/109/1
f 53/193/1 86/194/1 48/195/1 20/196/1
f 25/190/1 68/112/1 86/194/1 53/193/1
f 68/112/1 35/111/1 66/197/1 86/194/1
f 63/198/1 87/101/1 65/104/1 34/199/1
f 26/200/1 54/201/1 87/101/1 63/198/1
f 54/201/1 13/202/1 56/102/1 87/101/1
f 59/203/1 88/204/1 64/205/1 31/206/1
f 17/207/1 42/208/1 88/204/1 59/203/1
f 42/208/1 26/200/1 63/198/1 88/204/1
f 47/209/1 89/210/1 49/211/1 21/212/1
f 31/206/1 64/205/1 89/93/1 47/213/1
f 64/205/1 34/199/1 62/94/1 89/93/1
f 62/94/1 90/89/1 61/92/1 33/95/1
f 34/214/1 65/215/1 90/216/1 62/217/1
f 65/104/1 28/103/1 44/90/1 90/89/1
f 66/197/1 91/218/1 60/219/1 32/220/1
f 35/111/1 69/116/1 91/218/1 66/197/1
f 69/221/1 31/222/1 47/223/1 91/224/1
f 70/225/1 92/226/1 51/227/1 23/228/1
f 36/123/1 73/128/1 92/81/1 70/229/1
f 73/128/1 30/127/1 46/82/1 92/81/1
f 74/230/1 93/231/1 55/232/1 27/233/1
f 37/160/1 77/234/1 93/235/1 74/161/1
f 77/140/1 24/139/1 40/45/1 93/44/1
